<?xml version="1.0" standalone="no"?>
<!DOCTYPE svg PUBLIC "-//W3C//DTD SVG 20010904//EN"
 "http://www.w3.org/TR/2001/REC-SVG-20010904/DTD/svg10.dtd">
<svg version="1.0" xmlns="http://www.w3.org/2000/svg"
 width="248.000000pt" height="248.000000pt" viewBox="0 0 248.000000 248.000000"
 preserveAspectRatio="xMidYMid meet">

<g transform="translate(0.000000,248.000000) scale(0.100000,-0.100000)"
fill="#000000" stroke="none">
<path d="M960 1673 c34 -14 53 -67 28 -76 -7 -2 52 -6 132 -10 80 -3 181 -13
225 -21 87 -17 288 -72 320 -88 58 -27 -41 37 -116 76 -109 57 -219 93 -339
111 -91 14 -281 20 -250 8z"/>
<path d="M1849 1414 c-11 -3 -14 -14 -11 -35 3 -17 0 -34 -6 -38 -5 -3 72 -6
171 -6 196 0 175 4 372 -70 14 -5 11 1 -10 19 -42 36 -159 93 -230 111 -60 15
-256 29 -286 19z"/>
<path d="M780 1389 c69 -33 197 -75 280 -94 161 -35 601 -27 569 11 -6 7 -7
19 -3 25 5 9 -1 10 -25 6 -224 -45 -543 -19 -848 68 -10 3 2 -4 27 -16z"/>
<path d="M1668 1303 c7 -3 16 -2 19 1 4 3 -2 6 -13 5 -11 0 -14 -3 -6 -6z"/>
<path d="M372 1140 c-41 -25 -62 -73 -62 -140 0 -66 30 -100 87 -100 66 0 83
9 83 41 0 33 1 33 -36 19 -56 -22 -82 13 -63 83 13 49 46 71 85 57 24 -9 31
-8 41 6 19 26 16 41 -9 48 -44 11 -93 6 -126 -14z"/>
<path d="M558 1030 l-67 -130 35 0 c27 0 37 5 46 25 9 21 18 25 55 25 39 0 43
-2 43 -25 0 -21 5 -25 31 -25 l32 0 -7 73 c-4 39 -9 98 -13 130 l-6 57 -41 0
-41 0 -67 -130z m102 20 c0 -42 -3 -50 -18 -50 -10 0 -21 3 -25 6 -5 5 32 94
40 94 2 0 3 -22 3 -50z"/>
<path d="M816 1144 c-3 -11 -16 -70 -30 -131 l-24 -113 34 0 c29 0 35 4 40 28
3 15 9 38 14 52 8 25 8 25 22 -10 8 -19 18 -43 21 -52 5 -13 17 -18 42 -18 19
0 35 2 35 4 0 2 -9 26 -20 52 l-21 47 23 24 c27 28 30 86 5 110 -10 10 -38 18
-76 21 -51 4 -60 2 -65 -14z m94 -54 c0 -22 -14 -40 -31 -40 -22 0 -22 0 -9
34 6 17 14 24 25 20 8 -3 15 -10 15 -14z"/>
<path d="M1111 1053 c-12 -60 -25 -118 -28 -130 -5 -21 -2 -21 69 -21 58 0 74
4 80 17 14 34 8 41 -32 41 -25 0 -40 5 -40 13 0 10 8 45 35 165 5 19 1 22 -28
22 l-34 0 -22 -107z"/>
<path d="M1335 1127 c-58 -58 -71 -160 -26 -201 29 -26 83 -31 125 -11 49 23
76 77 76 149 0 47 -4 57 -26 75 -18 14 -41 21 -71 21 -38 0 -51 -6 -78 -33z
m105 -32 c15 -19 7 -77 -15 -112 -24 -35 -69 -29 -73 11 -5 40 5 73 28 96 24
24 43 25 60 5z"/>
<path d="M1564 1038 c4 -68 11 -127 15 -131 5 -5 21 -7 37 -5 26 3 36 16 91
123 34 66 62 123 63 128 0 4 -15 7 -34 7 -32 0 -34 -3 -66 -77 -17 -43 -36
-82 -41 -87 -5 -6 -9 24 -9 77 l0 87 -31 0 -32 0 7 -122z"/>
<path d="M1810 1155 c0 -3 -11 -57 -25 -121 -14 -64 -25 -120 -25 -125 0 -5
32 -9 70 -9 66 0 71 1 80 26 14 35 15 34 -30 34 -36 0 -40 3 -40 24 0 22 5 25
43 28 35 2 43 7 45 26 3 19 -1 22 -33 22 -32 0 -36 3 -33 23 2 18 10 23 43 25
39 3 55 15 55 40 0 8 -22 12 -75 12 -41 0 -75 -2 -75 -5z"/>
<path d="M1991 1053 c-12 -60 -25 -118 -28 -130 -4 -19 -1 -21 28 -20 30 2 34
6 44 47 6 25 15 44 20 43 5 -1 16 -21 25 -45 13 -37 20 -43 48 -46 38 -4 40 5
13 64 l-18 40 23 28 c23 27 31 70 16 92 -14 21 -51 34 -100 34 l-49 0 -22
-107z m109 32 c0 -14 -7 -28 -15 -32 -22 -8 -28 2 -21 32 8 33 36 33 36 0z"/>
<path d="M965 819 c52 -10 768 -10 820 0 23 5 -147 9 -410 9 -263 0 -433 -4
-410 -9z"/>
</g>
</svg>
